<svg width="211" height="39" viewBox="0 0 211 39" fill="none" xmlns="http://www.w3.org/2000/svg">
<path d="M11.5804 2.40399C12.9244 2.45199 14.0884 2.54799 15.0724 2.69199C16.0804 2.83599 16.9444 3.02799 17.6644 3.26799C18.4084 3.48399 19.0204 3.72399 19.5004 3.98799C19.9804 4.25199 20.3644 4.52799 20.6524 4.81599C21.3484 5.46399 21.6844 6.18399 21.6604 6.97599C21.6604 7.69599 21.5284 8.31999 21.2644 8.84799C21.0004 9.35199 20.6524 9.78399 20.2204 10.144C19.7884 10.504 19.2844 10.792 18.7084 11.008C18.1324 11.224 17.5444 11.392 16.9444 11.512C15.5284 11.776 13.9204 11.86 12.1204 11.764C13.4884 12.004 14.5204 12.34 15.2164 12.772C15.9124 13.18 16.3924 13.588 16.6564 13.996C16.9684 14.476 17.1004 15.004 17.0524 15.58C17.0524 16.276 16.8724 16.864 16.5124 17.344C16.1764 17.8 15.7804 18.172 15.3244 18.46C14.8684 18.748 14.4364 18.964 14.0284 19.108C13.6204 19.228 13.3564 19.3 13.2364 19.324C14.3404 19.324 15.3124 19.384 16.1524 19.504C16.9924 19.624 17.7124 19.792 18.3124 20.008C18.9364 20.224 19.4404 20.476 19.8244 20.764C20.2324 21.028 20.5684 21.304 20.8324 21.592C21.4324 22.264 21.7324 23.032 21.7324 23.896C21.6844 24.472 21.5164 24.976 21.2284 25.408C20.9404 25.816 20.5684 26.176 20.1124 26.488C19.6804 26.8 19.1764 27.064 18.6004 27.28C18.0244 27.472 17.4484 27.64 16.8724 27.784C15.5044 28.096 13.9444 28.264 12.1924 28.288C10.8724 28.336 9.70844 28.288 8.70044 28.144C7.69244 28 6.80444 27.808 6.03644 27.568C5.26844 27.328 4.60844 27.052 4.05644 26.74C3.50444 26.428 3.04844 26.104 2.68844 25.768C1.82444 24.976 1.28444 24.076 1.06844 23.068C0.756441 21.484 0.57644 19.828 0.52844 18.1C0.50444 16.348 0.54044 14.74 0.63644 13.276C0.73244 11.572 0.900442 9.89199 1.14044 8.23599C1.28444 7.41999 1.53644 6.71199 1.89644 6.11199C2.28044 5.48799 2.72444 4.95999 3.22844 4.52799C3.75644 4.09599 4.32044 3.74799 4.92044 3.48399C5.54444 3.19599 6.16844 2.97999 6.79244 2.83599C8.23244 2.47599 9.82844 2.33199 11.5804 2.40399Z" fill="#FF875B"/>
<path d="M52.5473 9.99999C53.4353 10.288 54.1793 10.708 54.7793 11.26C55.3793 11.812 55.8713 12.448 56.2553 13.168C56.6393 13.888 56.9273 14.668 57.1193 15.508C57.3353 16.324 57.4793 17.14 57.5513 17.956C57.7193 19.876 57.6353 21.964 57.2993 24.22C57.0833 25.036 56.7713 25.756 56.3633 26.38C56.0033 26.932 55.5233 27.424 54.9233 27.856C54.3233 28.288 53.5313 28.504 52.5473 28.504C51.6593 28.504 50.9033 28.336 50.2793 28C49.6793 27.664 49.1753 27.244 48.7673 26.74C48.3593 26.212 48.0353 25.648 47.7953 25.048C47.5553 24.424 47.3753 23.836 47.2553 23.284C47.1593 22.708 47.0993 22.204 47.0753 21.772C47.0513 21.34 47.0393 21.052 47.0393 20.908C47.0153 21.1 46.9673 21.424 46.8953 21.88C46.8473 22.336 46.7393 22.852 46.5713 23.428C46.4273 23.98 46.2113 24.568 45.9233 25.192C45.6593 25.816 45.3113 26.38 44.8793 26.884C44.4473 27.388 43.9073 27.796 43.2593 28.108C42.6353 28.444 41.8913 28.612 41.0273 28.612C40.1393 28.612 39.3713 28.444 38.7233 28.108C38.0993 27.772 37.5593 27.352 37.1033 26.848C36.6713 26.32 36.3113 25.744 36.0233 25.12C35.7353 24.496 35.5073 23.896 35.3393 23.32C35.1713 22.744 35.0513 22.228 34.9793 21.772C34.9313 21.292 34.8953 20.956 34.8713 20.764C34.8713 20.908 34.8473 21.208 34.7993 21.664C34.7753 22.096 34.7033 22.6 34.5833 23.176C34.4873 23.752 34.3193 24.352 34.0793 24.976C33.8633 25.6 33.5633 26.176 33.1793 26.704C32.7953 27.232 32.3153 27.664 31.7393 28C31.1873 28.336 30.5153 28.504 29.7233 28.504C28.6193 28.504 27.7433 28.276 27.0953 27.82C26.4473 27.34 25.9553 26.812 25.6193 26.236C25.2113 25.588 24.9473 24.832 24.8273 23.968C24.6113 21.736 24.6113 19.684 24.8273 17.812C24.9233 17.02 25.0673 16.216 25.2593 15.4C25.4513 14.584 25.7153 13.828 26.0513 13.132C26.3873 12.412 26.8073 11.788 27.3113 11.26C27.8393 10.708 28.4753 10.288 29.2193 9.99999C30.5633 9.49599 31.7753 9.25599 32.8553 9.27999C33.9593 9.30399 34.9313 9.49599 35.7713 9.85599C36.6353 10.216 37.3793 10.696 38.0033 11.296C38.6273 11.872 39.1553 12.472 39.5873 13.096C40.0193 13.696 40.3433 14.272 40.5593 14.824C40.7993 15.376 40.9553 15.784 41.0273 16.048C41.0993 15.784 41.2433 15.388 41.4593 14.86C41.6993 14.332 42.0233 13.78 42.4313 13.204C42.8393 12.604 43.3433 12.028 43.9433 11.476C44.5433 10.9 45.2633 10.432 46.1033 10.072C46.9433 9.71199 47.8913 9.50799 48.9473 9.45999C50.0033 9.38799 51.2033 9.56799 52.5473 9.99999Z" fill="#FF875B"/>
<path d="M78.5084 23.824C78.1244 24.52 77.6684 25.132 77.1404 25.66C76.6364 26.164 76.1444 26.584 75.6644 26.92C75.1124 27.328 74.5484 27.652 73.9724 27.892C73.4924 28.084 73.0244 28.228 72.5684 28.324C72.1364 28.444 71.7524 28.528 71.4164 28.576C71.0084 28.648 70.6484 28.684 70.3364 28.684C69.0164 28.684 67.8524 28.552 66.8444 28.288C65.8604 28.024 64.9964 27.688 64.2524 27.28C63.5084 26.848 62.8724 26.356 62.3444 25.804C61.8404 25.252 61.4324 24.688 61.1204 24.112C60.3284 22.792 59.8964 21.268 59.8244 19.54C59.8244 18.148 59.9684 16.948 60.2564 15.94C60.5684 14.908 60.9644 14.032 61.4444 13.312C61.9484 12.568 62.5124 11.956 63.1364 11.476C63.7844 10.996 64.4324 10.612 65.0804 10.324C66.6164 9.65199 68.3684 9.35199 70.3364 9.42399C71.4884 9.42399 72.5084 9.55599 73.3964 9.81999C74.2844 10.084 75.0524 10.432 75.7004 10.864C76.3724 11.296 76.9244 11.788 77.3564 12.34C77.8124 12.868 78.1844 13.42 78.4724 13.996C79.1444 15.316 79.5284 16.828 79.6244 18.532C79.6244 19.66 79.5164 20.656 79.3004 21.52C79.1084 22.384 78.8444 23.152 78.5084 23.824ZM70.1204 18.136C69.7124 18.136 69.3524 18.292 69.0404 18.604C68.7524 18.916 68.6324 19.264 68.6804 19.648C68.7284 20.152 68.8724 20.5 69.1124 20.692C69.3764 20.884 69.7124 20.98 70.1204 20.98C70.5284 20.98 70.8644 20.86 71.1284 20.62C71.3924 20.38 71.5244 20.056 71.5244 19.648C71.5244 19.264 71.4044 18.916 71.1644 18.604C70.9244 18.292 70.5764 18.136 70.1204 18.136Z" fill="#FF875B"/>
<path d="M91.9701 4.74399C91.9461 5.29599 91.7901 5.81199 91.5021 6.29199C91.2381 6.772 90.8901 7.19199 90.4581 7.55199C90.0261 7.88799 89.5221 8.152 88.9461 8.344C88.3701 8.536 87.7581 8.61999 87.1101 8.59599C86.4621 8.572 85.8621 8.43999 85.3101 8.2C84.7581 7.93599 84.2781 7.61199 83.8701 7.22799C83.4621 6.84399 83.1501 6.39999 82.9341 5.89599C82.7181 5.39199 82.6221 4.85199 82.6461 4.27599C82.6701 3.72399 82.8141 3.20799 83.0781 2.72799C83.3661 2.24799 83.7261 1.83999 84.1581 1.50399C84.6141 1.14399 85.1181 0.879994 85.6701 0.711994C86.2461 0.519994 86.8581 0.435994 87.5061 0.459994C88.1541 0.483993 88.7541 0.615992 89.3061 0.855993C89.8581 1.09599 90.3381 1.41999 90.7461 1.82799C91.1541 2.21199 91.4661 2.65599 91.6821 3.15999C91.8981 3.66399 91.9941 4.19199 91.9701 4.74399ZM92.6541 30.484C92.5341 31.156 92.3421 31.816 92.0781 32.464C91.8621 33.04 91.5621 33.652 91.1781 34.3C90.8181 34.972 90.3381 35.596 89.7381 36.172C88.9701 36.94 88.0941 37.48 87.1101 37.792C86.1261 38.104 85.1901 38.296 84.3021 38.368C83.2701 38.464 82.2261 38.428 81.1701 38.26C80.3061 38.14 79.6461 37.9 79.1901 37.54C78.7341 37.204 78.3981 36.856 78.1821 36.496C77.9181 36.064 77.7741 35.608 77.7501 35.128C77.6781 34.432 77.7501 33.868 77.9661 33.436C78.1821 33.004 78.4341 32.68 78.7221 32.464C79.0581 32.2 79.4661 32.02 79.9461 31.924C80.4501 31.852 80.8221 31.552 81.0621 31.024C81.3261 30.52 81.5181 29.968 81.6381 29.368C81.7581 28.672 81.8181 27.88 81.8181 26.992C81.8661 26.464 81.8901 25.864 81.8901 25.192C81.8901 24.496 81.8901 23.656 81.8901 22.672C81.8901 21.688 81.9021 20.5 81.9261 19.108C81.9741 17.692 82.0461 15.976 82.1421 13.96C82.1901 12.832 82.4781 11.98 83.0061 11.404C83.5581 10.828 84.1461 10.408 84.7701 10.144C85.4901 9.856 86.3061 9.69999 87.2181 9.67599C88.5861 9.67599 89.6541 9.904 90.4221 10.36C91.1901 10.816 91.7541 11.32 92.1141 11.872C92.5461 12.496 92.7981 13.216 92.8701 14.032C93.0621 15.52 93.2061 17.14 93.3021 18.892C93.3741 20.404 93.3741 22.156 93.3021 24.148C93.2301 26.116 93.0141 28.228 92.6541 30.484Z" fill="#FF875B"/>
<path d="M105.696 4.13199C105.744 4.65999 105.672 5.17599 105.48 5.67999C105.312 6.18399 105.048 6.63999 104.688 7.04799C104.352 7.43199 103.932 7.75599 103.428 8.01999C102.924 8.25999 102.372 8.41599 101.772 8.48799C101.148 8.55999 100.56 8.52399 100.008 8.38C99.48 8.21199 99 7.97199 98.568 7.65999C98.136 7.34799 97.776 6.97599 97.488 6.54399C97.224 6.08799 97.056 5.58399 96.984 5.03199C96.936 4.50399 96.996 3.99999 97.164 3.51999C97.356 3.01599 97.632 2.57199 97.992 2.18799C98.352 1.77999 98.784 1.44399 99.288 1.17999C99.792 0.915993 100.344 0.747994 100.944 0.675993C101.544 0.603994 102.108 0.651993 102.636 0.819992C103.188 0.963993 103.68 1.19199 104.112 1.50399C104.544 1.81599 104.904 2.19999 105.192 2.65599C105.48 3.11199 105.648 3.60399 105.696 4.13199ZM107.244 24.364C107.052 25.444 106.68 26.272 106.128 26.848C105.576 27.4 105.012 27.808 104.436 28.072C103.74 28.36 102.996 28.516 102.204 28.54C101.172 28.588 100.332 28.444 99.684 28.108C99.036 27.796 98.52 27.436 98.136 27.028C97.704 26.572 97.356 26.032 97.092 25.408C96.612 24.112 96.324 22.78 96.228 21.412C96.156 20.02 96.18 18.748 96.3 17.596C96.42 16.276 96.636 14.98 96.948 13.708C97.236 12.604 97.656 11.776 98.208 11.224C98.784 10.648 99.348 10.228 99.9 9.96399C100.548 9.67599 101.232 9.51999 101.952 9.49599C103.056 9.44799 103.944 9.63999 104.616 10.072C105.312 10.48 105.864 10.96 106.272 11.512C106.728 12.136 107.064 12.88 107.28 13.744C107.448 14.536 107.58 15.46 107.676 16.516C107.748 17.428 107.76 18.544 107.712 19.864C107.688 21.16 107.532 22.66 107.244 24.364Z" fill="#FF875B"/>
<path d="M123.288 10.396C123.312 8.85999 123.54 7.49199 123.972 6.29199C124.14 5.78799 124.368 5.28399 124.656 4.77999C124.944 4.27599 125.304 3.83199 125.736 3.44799C126.168 3.06399 126.672 2.75199 127.248 2.51199C127.824 2.27199 128.508 2.15199 129.3 2.15199C130.212 2.22399 131.064 2.52399 131.856 3.05199C132.528 3.50799 133.164 4.22799 133.764 5.21199C134.388 6.17199 134.808 7.52799 135.024 9.27999C135.216 10.984 135.324 12.592 135.348 14.104C135.372 15.616 135.36 16.948 135.312 18.1C135.24 19.444 135.144 20.692 135.024 21.844C134.88 23.02 134.58 24.076 134.124 25.012C133.932 25.42 133.692 25.816 133.404 26.2C133.116 26.56 132.768 26.896 132.36 27.208C131.976 27.496 131.532 27.724 131.028 27.892C130.524 28.06 129.948 28.144 129.3 28.144C128.58 28.144 127.944 28.024 127.392 27.784C126.84 27.544 126.36 27.232 125.952 26.848C125.544 26.44 125.196 25.996 124.908 25.516C124.644 25.012 124.416 24.508 124.224 24.004C123.792 22.804 123.528 21.448 123.432 19.936H122.1C121.956 21.472 121.644 22.828 121.164 24.004C120.948 24.508 120.684 25.012 120.372 25.516C120.084 25.996 119.736 26.428 119.328 26.812C118.92 27.172 118.44 27.472 117.888 27.712C117.336 27.952 116.712 28.072 116.016 28.072C115.032 28.048 114.144 27.796 113.352 27.316C113.016 27.1 112.668 26.836 112.308 26.524C111.972 26.212 111.66 25.816 111.372 25.336C111.084 24.832 110.832 24.256 110.616 23.608C110.424 22.936 110.292 22.156 110.22 21.268C110.028 19.18 109.932 17.344 109.932 15.76C109.956 14.152 110.004 12.784 110.076 11.656C110.172 10.336 110.304 9.19599 110.472 8.23599C110.664 7.10799 110.988 6.09999 111.444 5.21199C111.636 4.82799 111.864 4.45599 112.128 4.096C112.416 3.736 112.74 3.41199 113.1 3.12399C113.484 2.83599 113.904 2.60799 114.36 2.43999C114.84 2.27199 115.368 2.18799 115.944 2.18799C116.736 2.18799 117.42 2.308 117.996 2.54799C118.572 2.78799 119.076 3.09999 119.508 3.48399C119.94 3.86799 120.288 4.31199 120.552 4.81599C120.84 5.29599 121.08 5.78799 121.272 6.29199C121.704 7.49199 121.92 8.85999 121.92 10.396H123.288Z" fill="#FF875B"/>
<path d="M143.687 9.49599C144.383 9.59199 145.007 9.81999 145.559 10.18C146.039 10.492 146.471 10.96 146.855 11.584C147.263 12.208 147.491 13.072 147.539 14.176C147.539 14.584 147.539 15.04 147.539 15.544C147.563 16.048 147.599 16.516 147.647 16.948C147.719 17.38 147.827 17.752 147.971 18.064C148.139 18.352 148.379 18.496 148.691 18.496C149.243 18.496 149.555 18.16 149.627 17.488C149.723 16.792 149.783 15.688 149.807 14.176C149.807 13 150.023 12.088 150.455 11.44C150.887 10.792 151.355 10.324 151.859 10.036C152.459 9.69999 153.143 9.50799 153.911 9.45999C155.111 9.41199 156.047 9.59199 156.719 9.99999C157.415 10.384 157.955 10.828 158.339 11.332C158.771 11.932 159.071 12.616 159.239 13.384C159.503 14.656 159.587 15.868 159.491 17.02C159.419 18.172 159.287 19.204 159.095 20.116C158.855 21.172 158.543 22.168 158.159 23.104C157.703 24.16 157.067 25.096 156.251 25.912C155.891 26.272 155.483 26.62 155.027 26.956C154.571 27.292 154.043 27.592 153.443 27.856C152.843 28.096 152.183 28.288 151.463 28.432C150.743 28.576 149.939 28.636 149.051 28.612C147.179 28.564 145.631 28.348 144.407 27.964C143.207 27.556 142.247 27.124 141.527 26.668C140.687 26.14 140.051 25.54 139.619 24.868C138.875 23.788 138.383 22.588 138.143 21.268C137.903 19.948 137.795 18.712 137.819 17.56C137.819 16.216 137.951 14.86 138.215 13.492C138.479 12.316 138.911 11.44 139.511 10.864C140.111 10.288 140.723 9.90399 141.347 9.71199C142.067 9.47199 142.847 9.39999 143.687 9.49599Z" fill="#FF875B"/>
<path d="M185.939 19.72C185.987 21.136 185.855 22.42 185.543 23.572C185.399 24.076 185.207 24.58 184.967 25.084C184.751 25.564 184.451 26.02 184.067 26.452C183.683 26.86 183.227 27.22 182.699 27.532C182.195 27.844 181.583 28.06 180.863 28.18C180.863 28.18 180.719 28.192 180.431 28.216C180.143 28.24 179.771 28.228 179.315 28.18C178.883 28.132 178.403 28.036 177.875 27.892C177.371 27.724 176.891 27.46 176.435 27.1C175.979 26.716 175.583 26.212 175.247 25.588C174.935 24.964 174.755 24.172 174.707 23.212C174.611 22.276 174.515 21.436 174.419 20.692C174.299 20.068 174.167 19.492 174.023 18.964C173.879 18.412 173.687 18.136 173.447 18.136C173.519 19.024 173.555 19.792 173.555 20.44C173.579 21.088 173.579 21.64 173.555 22.096C173.531 22.624 173.507 23.08 173.483 23.464C173.363 24.352 173.087 25.144 172.655 25.84C172.295 26.44 171.755 26.992 171.035 27.496C170.339 28 169.367 28.264 168.119 28.288C167.519 28.288 166.979 28.216 166.499 28.072C166.043 27.952 165.635 27.772 165.275 27.532C164.915 27.292 164.591 27.028 164.303 26.74C164.039 26.428 163.811 26.116 163.619 25.804C163.163 25.06 162.839 24.22 162.647 23.284C162.479 22.636 162.347 21.892 162.251 21.052C162.155 20.332 162.095 19.468 162.071 18.46C162.047 17.452 162.095 16.3 162.215 15.004C162.335 13.996 162.611 13.084 163.043 12.268C163.211 11.932 163.427 11.596 163.691 11.26C163.955 10.924 164.267 10.624 164.627 10.36C164.987 10.072 165.395 9.84399 165.851 9.67599C166.331 9.48399 166.871 9.36399 167.471 9.31599C168.527 9.24399 169.391 9.29199 170.063 9.45999C170.759 9.62799 171.323 9.856 171.755 10.144C172.187 10.408 172.511 10.708 172.727 11.044C172.967 11.356 173.171 11.656 173.339 11.944C175.499 10.768 177.467 10.216 179.243 10.288C179.987 10.312 180.731 10.48 181.475 10.792C182.219 11.08 182.891 11.584 183.491 12.304C184.115 13 184.643 13.948 185.075 15.148C185.507 16.348 185.795 17.872 185.939 19.72Z" fill="#FF875B"/>
<path d="M193.457 7.012C193.289 5.83599 193.337 4.78 193.601 3.844C193.721 3.46 193.889 3.07599 194.105 2.69199C194.321 2.30799 194.621 1.97199 195.005 1.68399C195.389 1.39599 195.857 1.16799 196.409 0.999993C196.961 0.807994 197.621 0.711994 198.389 0.711994C199.133 0.711994 199.781 0.807994 200.333 0.999993C200.885 1.16799 201.341 1.40799 201.701 1.71999C202.085 2.03199 202.397 2.37999 202.637 2.76399C202.877 3.14799 203.069 3.53199 203.213 3.91599C203.525 4.85199 203.645 5.90799 203.573 7.08399C204.845 7.01199 205.985 7.11999 206.993 7.40799C207.425 7.52799 207.845 7.70799 208.253 7.94799C208.661 8.16399 209.021 8.45199 209.333 8.81199C209.669 9.14799 209.933 9.56799 210.125 10.072C210.317 10.576 210.413 11.176 210.413 11.872C210.413 12.52 210.317 13.084 210.125 13.564C209.957 14.02 209.717 14.416 209.405 14.752C209.093 15.088 208.745 15.364 208.361 15.58C207.977 15.796 207.593 15.964 207.209 16.084C206.249 16.372 205.181 16.492 204.005 16.444C204.245 18.7 204.245 20.704 204.005 22.456C203.909 23.2 203.753 23.932 203.537 24.652C203.345 25.372 203.069 26.008 202.709 26.56C202.349 27.112 201.893 27.568 201.341 27.928C200.789 28.264 200.129 28.432 199.361 28.432C197.825 28.432 196.661 28.108 195.869 27.46C195.101 26.788 194.561 25.888 194.249 24.76C193.961 23.632 193.841 22.336 193.889 20.872C193.937 19.408 194.021 17.86 194.141 16.228C192.773 16.42 191.561 16.408 190.505 16.192C190.049 16.096 189.605 15.952 189.173 15.76C188.741 15.568 188.357 15.304 188.021 14.968C187.685 14.632 187.409 14.212 187.193 13.708C187.001 13.204 186.905 12.592 186.905 11.872C186.905 10.864 187.121 10.048 187.553 9.42399C188.009 8.79999 188.573 8.30799 189.245 7.94799C189.917 7.58799 190.625 7.34799 191.369 7.22799C192.137 7.084 192.833 7.012 193.457 7.012Z" fill="#FF875B"/>
</svg>
