<?xml version="1.0" encoding="utf-8"?>
<!-- Generator: Adobe Illustrator 23.0.1, SVG Export Plug-In . SVG Version: 6.00 Build 0)  -->
<svg version="1.1" id="livetype" xmlns="http://www.w3.org/2000/svg" xmlns:xlink="http://www.w3.org/1999/xlink" x="0px" y="0px"
	 viewBox="0 0 135 40" style="enable-background:new 0 0 135 40;" xml:space="preserve">
<style type="text/css">
	.st0{fill:#FFFFFF;}
	.st1{fill:#2B3135;}
</style>
<path class="st0" d="M134.1,30.5c0,0.4,0,0.7,0,1.1c0,0.3,0,0.6,0,0.9c0,0.6-0.1,1.2-0.2,1.9c-0.1,0.6-0.3,1.2-0.5,1.7
	c-0.3,0.5-0.6,1-1,1.4s-0.9,0.8-1.4,1c-0.5,0.3-1,0.4-1.7,0.5c-0.6,0.1-1.3,0.1-1.9,0.2c-0.3,0-0.6,0-0.9,0h-1.1H8.4
	c-0.3,0-0.6,0-0.9,0c-0.6,0-1.2,0-1.9-0.2c-0.6-0.1-1.2-0.3-1.7-0.5c-0.5-0.3-1-0.6-1.4-1s-0.8-0.9-1-1.4c-0.3-0.5-0.4-1-0.5-1.7
	S0.8,33,0.8,32.5c0-0.2,0-0.9,0-0.9V8.4c0,0,0-0.7,0-0.9c0-0.5,0-1.2,0.2-1.9C1.2,5.1,1.3,4.5,1.6,4s0.6-1,1-1.4s0.9-0.7,1.4-1
	s1.1-0.4,1.7-0.5C6.3,0.9,7,0.9,7.5,0.9h0.9h118.1h0.9c0.5,0,1.2,0,1.9,0.2c0.6,0.1,1.1,0.3,1.7,0.5c0.5,0.3,1,0.6,1.4,1
	s0.8,0.9,1,1.4c0.3,0.5,0.4,1.1,0.5,1.6c0.1,0.6,0.2,1.3,0.2,1.9c0,0.3,0,0.6,0,0.9c0,0.4,0,0.7,0,1.1V30.5z"/>
<path class="st1" d="M135,8.4c0-0.3,0-0.6,0-0.9c0-0.7-0.1-1.3-0.2-2s-0.3-1.3-0.6-1.9C133.9,3,133.5,2.5,133,2s-1-0.9-1.6-1.2
	s-1.2-0.5-1.9-0.6c-0.7-0.1-1.3-0.2-2-0.2c-0.3,0-0.6,0-0.9,0c-0.4,0-0.7,0-1.1,0H9.5C9.2,0,8.8,0,8.4,0C8.1,0,7.8,0,7.5,0
	c-0.7,0-1.3,0.1-2,0.2S4.2,0.5,3.6,0.8S2.5,1.5,2,2S1.1,3,0.8,3.6S0.3,4.9,0.2,5.5C0.1,6.2,0,6.9,0,7.5c0,0.3,0,0.6,0,0.9
	c0,0.4,0,0.7,0,1.1v20.9c0,0.4,0,0.7,0,1.1c0,0.3,0,0.6,0,0.9c0,0.7,0.1,1.3,0.2,2s0.3,1.3,0.6,1.9C1.1,37,1.5,37.5,2,38
	s1,0.9,1.6,1.2s1.2,0.5,1.9,0.6s1.3,0.2,2,0.2c0.3,0,0.6,0,0.9,0c0.4,0,0.7,0,1.1,0h115.9c0.4,0,0.7,0,1.1,0c0.3,0,0.6,0,0.9,0
	c0.7,0,1.3-0.1,2-0.2c0.7-0.1,1.3-0.3,1.9-0.6s1.1-0.7,1.6-1.2s0.9-1,1.2-1.6c0.3-0.6,0.5-1.2,0.6-1.9s0.2-1.3,0.2-2
	c0-0.3,0-0.6,0-0.9c0-0.4,0-0.7,0-1.1v-21C135,9.2,135,8.8,135,8.4z M134.1,30.5c0,0.4,0,0.7,0,1.1c0,0.3,0,0.6,0,0.9
	c0,0.6-0.1,1.2-0.2,1.9c-0.1,0.6-0.3,1.2-0.5,1.7c-0.3,0.5-0.6,1-1,1.4s-0.9,0.8-1.4,1c-0.5,0.3-1,0.4-1.7,0.5
	c-0.6,0.1-1.3,0.1-1.9,0.2c-0.3,0-0.6,0-0.9,0h-1.1H8.4c-0.3,0-0.6,0-0.9,0c-0.6,0-1.2,0-1.9-0.2c-0.6-0.1-1.2-0.3-1.7-0.5
	c-0.5-0.3-1-0.6-1.4-1s-0.8-0.9-1-1.4c-0.3-0.5-0.4-1-0.5-1.7S0.8,33,0.8,32.5c0-0.2,0-0.9,0-0.9V8.4c0,0,0-0.7,0-0.9
	c0-0.5,0-1.2,0.2-1.9C1.2,5.1,1.3,4.5,1.6,4s0.6-1,1-1.4s0.9-0.7,1.4-1s1.1-0.4,1.7-0.5C6.3,0.9,7,0.9,7.5,0.9h0.9h118.1h0.9
	c0.5,0,1.2,0,1.9,0.2c0.6,0.1,1.1,0.3,1.7,0.5c0.5,0.3,1,0.6,1.4,1s0.8,0.9,1,1.4c0.3,0.5,0.4,1.1,0.5,1.6c0.1,0.6,0.2,1.3,0.2,1.9
	c0,0.3,0,0.6,0,0.9c0,0.4,0,0.7,0,1.1V30.5z"/>
<g id="XMLID_20_">
	<g id="XMLID_22_">
		<g id="XMLID_23_">
			<path id="XMLID_25_" class="st1" d="M32.5,20.3c0-2.8,2.3-4.1,2.4-4.2c-1.3-1.9-3.3-2.1-4-2.2c-1.7-0.2-3.3,1-4.2,1s-2.2-1-3.6-1
				c-1.8,0-3.5,1.1-4.5,2.7c-1.9,3.3-0.5,8.3,1.4,11c0.9,1.3,2,2.8,3.4,2.8c1.4-0.1,1.9-0.9,3.6-0.9s2.1,0.9,3.6,0.9
				c1.5,0,2.4-1.3,3.3-2.7c1.1-1.5,1.5-3,1.5-3.1C35.4,24.7,32.5,23.6,32.5,20.3z"/>
			<path id="XMLID_24_" class="st1" d="M29.7,12.2c0.7-0.9,1.3-2.2,1.1-3.5c-1.1,0-2.4,0.7-3.2,1.7c-0.7,0.8-1.3,2.1-1.1,3.4
				C27.7,13.8,29,13.1,29.7,12.2z"/>
		</g>
	</g>
	<g>
		<path class="st1" d="M50,27.1h-4.7l-1.1,3.4h-2l4.5-12.4h2l4.5,12.4h-2L50,27.1z M45.8,25.6h3.8l-1.9-5.5h-0.1L45.8,25.6z"/>
		<path class="st1" d="M62.9,26c0,2.8-1.5,4.6-3.8,4.6c-1.3,0-2.3-0.6-2.8-1.6l0,0v4.5h-1.9v-12h1.8V23l0,0c0.5-1,1.6-1.6,2.9-1.6
			C61.2,21.3,62.9,23.2,62.9,26z M60.9,26c0-1.8-0.9-3-2.4-3C57,23,56,24.2,56,26s1,3,2.4,3C60,29,60.9,27.8,60.9,26z"/>
		<path class="st1" d="M72.8,26c0,2.8-1.5,4.6-3.8,4.6c-1.3,0-2.3-0.6-2.8-1.6l0,0v4.5h-1.9v-12h1.8V23l0,0c0.5-1,1.6-1.6,2.9-1.6
			C71.2,21.3,72.8,23.2,72.8,26z M70.9,26c0-1.8-0.9-3-2.4-3c-1.4,0-2.4,1.2-2.4,3s1,3,2.4,3C69.9,29,70.9,27.8,70.9,26z"/>
		<path class="st1" d="M79.3,27c0.1,1.2,1.3,2,3,2c1.6,0,2.7-0.8,2.7-1.9c0-1-0.7-1.5-2.3-1.9l-1.6-0.4c-2.3-0.6-3.3-1.6-3.3-3.3
			c0-2.1,1.9-3.6,4.5-3.6s4.4,1.5,4.5,3.6h-1.9c-0.1-1.2-1.1-2-2.6-2s-2.5,0.8-2.5,1.9c0,0.9,0.7,1.4,2.3,1.8l1.4,0.3
			c2.5,0.6,3.6,1.6,3.6,3.4c0,2.3-1.9,3.8-4.8,3.8c-2.8,0-4.6-1.4-4.7-3.7C77.7,27,79.3,27,79.3,27z"/>
		<path class="st1" d="M91,19.3v2.1h1.7v1.5H91v5c0,0.8,0.3,1.1,1.1,1.1c0.2,0,0.5,0,0.6,0v1.5c-0.2,0.1-0.6,0.1-1,0.1
			c-1.8,0-2.5-0.7-2.5-2.4V23h-1.3v-1.5h1.3v-2.1H91V19.3z"/>
		<path class="st1" d="M93.8,26c0-2.8,1.7-4.6,4.3-4.6c2.6,0,4.3,1.8,4.3,4.6c0,2.9-1.7,4.6-4.3,4.6C95.3,30.6,93.8,28.8,93.8,26z
			 M100.5,26c0-2-0.9-3.1-2.4-3.1S95.7,24,95.7,26s0.9,3.1,2.4,3.1S100.5,27.9,100.5,26z"/>
		<path class="st1" d="M103.8,21.4h1.8V23l0,0c0.3-1,1.1-1.6,2.2-1.6c0.3,0,0.5,0,0.6,0.1v1.7c-0.1-0.1-0.5-0.1-0.8-0.1
			c-1.2,0-1.9,0.8-1.9,2.1v5.4h-1.9C103.8,30.6,103.8,21.4,103.8,21.4z"/>
		<path class="st1" d="M117.1,27.8c-0.2,1.6-1.9,2.8-3.9,2.8c-2.6,0-4.3-1.8-4.3-4.6s1.6-4.7,4.2-4.7c2.5,0,4.1,1.7,4.1,4.5v0.6
			h-6.4v0.1c0,1.5,1,2.6,2.4,2.6c1,0,1.8-0.5,2.1-1.3C115.2,27.8,117.1,27.8,117.1,27.8z M110.8,25.1h4.5c0-1.4-0.9-2.3-2.2-2.3
			C111.8,22.8,110.8,23.8,110.8,25.1z"/>
	</g>
</g>
<g id="XMLID_1_">
	<g>
		<path class="st1" d="M45.5,8.7c1.8,0,2.8,1.1,2.8,3s-1,3-2.8,3h-2.2v-6H45.5z M44.2,13.9h1.1c1.2,0,2-0.8,2-2.1s-0.7-2.1-2-2.1
			h-1.1V13.9z"/>
		<path class="st1" d="M49.4,12.4c0-1.5,0.8-2.3,2.1-2.3s2.1,0.9,2.1,2.3c0,1.5-0.8,2.3-2.1,2.3C50.2,14.8,49.4,13.9,49.4,12.4z
			 M52.7,12.4c0-1-0.4-1.5-1.2-1.5s-1.2,0.6-1.2,1.5c0,1,0.4,1.6,1.2,1.6S52.7,13.4,52.7,12.4z"/>
		<path class="st1" d="M59.2,14.7h-0.9l-0.9-3.3h-0.1l-0.9,3.3h-0.9l-1.2-4.5h0.9l0.8,3.4h0.1l0.9-3.4h0.9l0.9,3.4h0.1l0.8-3.4h0.9
			L59.2,14.7z"/>
		<path class="st1" d="M61.6,10.2h0.9v0.7h0.1c0.2-0.5,0.7-0.8,1.3-0.8c1,0,1.6,0.6,1.6,1.7v2.9h-0.9V12c0-0.7-0.3-1.1-1-1.1
			s-1.1,0.4-1.1,1.1v2.6h-0.9C61.6,14.6,61.6,10.2,61.6,10.2z"/>
		<path class="st1" d="M66.8,8.4h0.9v6.3h-0.9V8.4z"/>
		<path class="st1" d="M68.9,12.4c0-1.5,0.8-2.3,2.1-2.3c1.3,0,2.1,0.9,2.1,2.3c0,1.5-0.8,2.3-2.1,2.3
			C69.7,14.8,68.9,13.9,68.9,12.4z M72.2,12.4c0-1-0.4-1.5-1.2-1.5c-0.8,0-1.2,0.6-1.2,1.5c0,1,0.4,1.6,1.2,1.6
			C71.8,14,72.2,13.4,72.2,12.4z"/>
		<path class="st1" d="M74.1,13.4c0-0.8,0.6-1.3,1.7-1.3l1.2-0.1v-0.4c0-0.5-0.3-0.7-0.9-0.7c-0.5,0-0.8,0.2-0.9,0.5h-0.9
			c0.1-0.8,0.8-1.3,1.8-1.3c1.1,0,1.8,0.6,1.8,1.5v3.1h-0.9v-0.6h-0.1c-0.3,0.5-0.8,0.7-1.4,0.7C74.7,14.8,74.1,14.2,74.1,13.4z
			 M77,13v-0.4l-1.1,0.1c-0.6,0-0.9,0.3-0.9,0.6c0,0.4,0.4,0.6,0.8,0.6C76.5,14,77,13.6,77,13z"/>
		<path class="st1" d="M79,12.4c0-1.4,0.7-2.3,1.9-2.3c0.6,0,1.1,0.3,1.4,0.8h0.1V8.4h0.9v6.3h-0.9V14h-0.1
			c-0.3,0.5-0.8,0.8-1.4,0.8C79.8,14.8,79,13.9,79,12.4z M80,12.4c0,1,0.5,1.5,1.2,1.5s1.2-0.6,1.2-1.5s-0.5-1.5-1.2-1.5
			C80.3,10.9,80,11.5,80,12.4z"/>
		<path class="st1" d="M86.8,12.4c0-1.5,0.8-2.3,2.1-2.3c1.3,0,2.1,0.9,2.1,2.3c0,1.5-0.8,2.3-2.1,2.3
			C87.7,14.8,86.8,13.9,86.8,12.4z M90.2,12.4c0-1-0.4-1.5-1.2-1.5c-0.8,0-1.2,0.6-1.2,1.5c0,1,0.4,1.6,1.2,1.6
			C89.8,14,90.2,13.4,90.2,12.4z"/>
		<path class="st1" d="M92.3,10.2h0.9v0.7h0.1c0.2-0.5,0.7-0.8,1.3-0.8c1,0,1.6,0.6,1.6,1.7v2.9h-0.9V12c0-0.7-0.3-1.1-1-1.1
			s-1.1,0.4-1.1,1.1v2.6h-0.9V10.2z"/>
		<path class="st1" d="M101.2,9.1v1.1h1V11h-1v2.3c0,0.5,0.2,0.7,0.6,0.7c0.1,0,0.2,0,0.3,0v0.7c-0.1,0-0.3,0-0.5,0
			c-1,0-1.4-0.3-1.4-1.2V11h-0.7v-0.7h0.7V9.1H101.2z"/>
		<path class="st1" d="M103.3,8.4h0.9v2.5h0.1c0.2-0.5,0.7-0.8,1.4-0.8c1,0,1.6,0.6,1.6,1.7v2.9h-0.9V12c0-0.7-0.3-1.1-1-1.1
			s-1.1,0.5-1.1,1.1v2.6h-0.9L103.3,8.4L103.3,8.4z"/>
		<path class="st1" d="M112.5,13.5c-0.2,0.8-0.9,1.3-2,1.3c-1.3,0-2.1-0.9-2.1-2.3s0.8-2.4,2.1-2.4c1.3,0,2,0.9,2,2.3v0.3h-3.2l0,0
			c0,0.8,0.5,1.3,1.2,1.3c0.5,0,0.9-0.2,1.1-0.5C111.6,13.5,112.5,13.5,112.5,13.5z M109.2,12h2.3c0-0.7-0.5-1.2-1.1-1.2
			C109.8,10.9,109.3,11.3,109.2,12z"/>
	</g>
</g>
</svg>
