<svg width="60" height="60" viewBox="0 0 60 60" fill="none" xmlns="http://www.w3.org/2000/svg">
<rect width="60" height="60" rx="30" fill="#7989E8"/>
<path d="M16.2731 38H18.4931C18.6331 38 18.7331 37.92 18.7531 37.78L20.6531 29.14C20.6731 29.04 20.7531 29.04 20.7731 29.14L22.8131 37.8C22.8531 37.94 22.9331 38 23.0731 38H25.4531C25.5931 38 25.6931 37.94 25.7331 37.8L29.0131 24.26C29.0531 24.08 28.9531 24 28.7931 24H26.4331C26.2931 24 26.2131 24.08 26.1731 24.22L24.3331 32.34C24.3131 32.44 24.2331 32.42 24.2131 32.34L22.2131 24.2C22.1731 24.06 22.0731 24 21.9331 24H19.5131C19.3731 24 19.2931 24.08 19.2531 24.22L17.4131 32.34C17.3931 32.44 17.3131 32.44 17.2931 32.34L15.3931 24.2C15.3531 24.06 15.2731 24 15.1331 24H12.6531C12.4931 24 12.4131 24.08 12.4531 24.26L15.9931 37.8C16.0331 37.94 16.1331 38 16.2731 38ZM30.9522 38H33.2922C33.4322 38 33.5322 37.9 33.5322 37.76V24.24C33.5322 24.1 33.4322 24 33.2922 24H30.9522C30.8122 24 30.7122 24.1 30.7122 24.24V37.76C30.7122 37.9 30.8122 38 30.9522 38ZM44.0061 24.24L44.0261 32.64C44.0261 32.74 43.9461 32.76 43.9061 32.68L38.7461 24.16C38.6861 24.04 38.5861 24 38.4661 24H36.2061C36.0661 24 35.9661 24.1 35.9661 24.24V37.76C35.9661 37.9 36.0661 38 36.2061 38H38.5461C38.6861 38 38.7861 37.9 38.7861 37.76L38.7461 29.32C38.7461 29.22 38.8261 29.2 38.8661 29.28L44.0461 37.84C44.1061 37.96 44.2061 38 44.3261 38H46.5861C46.7261 38 46.8261 37.9 46.8261 37.76V24.24C46.8261 24.1 46.7261 24 46.5861 24H44.2461C44.1061 24 44.0061 24.1 44.0061 24.24Z" fill="white"/>
</svg>
